<?xml version="1.0" encoding="UTF-8"?>
<svg version="1.1" xmlns="http://www.w3.org/2000/svg" width="184" height="197">
<path d="M0 0 C60.72 0 121.44 0 184 0 C184 65.01 184 130.02 184 197 C123.28 197 62.56 197 0 197 C0 131.99 0 66.98 0 0 Z " fill="#D1E18E" transform="translate(0,0)"/>
<path d="M0 0 C60.72 0 121.44 0 184 0 C184 23.76 184 47.52 184 72 C181.94081977 68.91122965 180.74948301 66.00638621 179.375 62.5625 C170.79534576 42.02195512 154.37297368 25.65543309 134.23046875 16.27734375 C124.15585878 12.2937918 113.88779445 9.22937769 103 9 C101.31390625 8.92458984 101.31390625 8.92458984 99.59375 8.84765625 C77.00631084 8.25449871 57.5646344 14.83840839 40 29 C39.09636719 29.70898438 38.19273438 30.41796875 37.26171875 31.1484375 C23.13642451 42.96711293 11.7313455 61.82186779 9.7578125 80.26306152 C9.42273131 85.26368284 9.38640516 90.25689 9.42358398 95.26708984 C9.43744965 97.86556416 9.40324804 100.46042085 9.36523438 103.05859375 C9.25580005 126.82868742 19.14475185 146.08478751 35.14453125 163.30859375 C53.66074706 180.90430935 77.42742252 187.82348358 102.48046875 187.23046875 C107.49007558 187.02802925 112.15986278 186.29253664 117 185 C117.680625 184.89042969 118.36125 184.78085938 119.0625 184.66796875 C139.07898932 181.31962219 158.259723 166.38947882 169.828125 150.390625 C175.26744267 142.20714706 179.19303838 133.0269366 183 124 C183.33 124 183.66 124 184 124 C184 148.09 184 172.18 184 197 C123.28 197 62.56 197 0 197 C0 131.99 0 66.98 0 0 Z " fill="#1D1D1D" transform="translate(0,0)"/>
<path d="M0 0 C0.64461182 -0.00043808 1.28922363 -0.00087616 1.95336914 -0.00132751 C4.06379505 0.00074661 6.17340594 0.02401041 8.28369141 0.04760742 C9.75484788 0.05320832 11.22600998 0.05747609 12.69717407 0.06047058 C16.55405343 0.0718806 20.4105895 0.10131405 24.26733398 0.13458252 C28.20893715 0.16536677 32.15059622 0.1789937 36.09228516 0.1940918 C43.81509726 0.22618799 51.53762734 0.27733708 59.26025391 0.34057617 C56.55015758 1.80630156 54.68585137 2.44766817 51.57275391 3.02807617 C37.84334941 5.98622089 26.08843779 12.61028811 15.26025391 21.34057617 C14.35662109 22.04956055 13.45298828 22.75854492 12.52197266 23.48901367 C-0.86406062 34.68914727 -8.6906385 50.25706658 -14.73974609 66.34057617 C-15.06974609 66.34057617 -15.39974609 66.34057617 -15.73974609 66.34057617 C-15.80941049 59.01238761 -15.86264041 51.68427105 -15.89518261 44.35581779 C-15.91080526 40.95250586 -15.93198044 37.54942132 -15.96606445 34.14624023 C-16.00504643 30.22927621 -16.01948349 26.31240266 -16.03271484 22.39526367 C-16.0481987 21.17942596 -16.06368256 19.96358826 -16.07963562 18.71090698 C-16.08184079 7.6094924 -16.08184079 7.6094924 -12.73974609 3.34057617 C-8.34314033 0.68621198 -5.10456033 -0.02933655 0 0 Z " fill="#090909" transform="translate(24.73974609375,7.659423828125)"/>
<path d="M0 0 C2.39296847 3.0783094 3.85618791 5.84860495 5.25 9.5 C14.20224815 31.35090156 30.35598642 48.73999399 52.0859375 58.3671875 C59.24671458 61.24170372 66.47175252 63.33157759 74 65 C74 65.33 74 65.66 74 66 C65.5156907 66.13933306 57.03186336 66.24578736 48.54669094 66.31087303 C44.60615419 66.3421194 40.66640302 66.38446598 36.72631836 66.45263672 C32.92018537 66.51807391 29.11480546 66.55375636 25.30815315 66.56926346 C23.859662 66.58030669 22.41120974 66.60187261 20.96304131 66.63438034 C8.20330914 66.90928043 8.20330914 66.90928043 3.61743164 63.15087891 C0.14786469 59.57658726 -0.12420914 56.26673846 -0.11352539 51.42700195 C-0.11344986 50.28604568 -0.11337433 49.14508942 -0.11329651 47.96955872 C-0.10813522 46.73823715 -0.10297394 45.50691559 -0.09765625 44.23828125 C-0.0962413 42.97735153 -0.09482635 41.71642181 -0.09336853 40.4172821 C-0.08871575 37.06848291 -0.07973342 33.71975189 -0.06866455 30.37097168 C-0.05842687 26.95239857 -0.05386586 23.53381841 -0.04882812 20.11523438 C-0.03779099 13.41013739 -0.02104686 6.70507263 0 0 Z " fill="#090A09" transform="translate(9,122)"/>
<path d="M0 0 C0.33 0 0.66 0 1 0 C1.16253054 7.45829303 1.28673769 14.91620148 1.3626852 22.37590981 C1.39914645 25.84027485 1.44855637 29.30342439 1.52807617 32.76708984 C1.61901793 36.7534302 1.65271323 40.73928665 1.68359375 44.7265625 C1.71972275 45.96427399 1.75585175 47.20198547 1.79307556 48.47720337 C1.79745696 58.09615871 1.79745696 58.09615871 -1.65234375 61.79296875 C-7.16971746 65.4955343 -13.87178722 64.73851384 -20.24609375 64.5859375 C-21.62612555 64.57473098 -23.00618141 64.56619767 -24.38624573 64.56021118 C-27.99867987 64.53742589 -31.60964024 64.47859756 -35.22149658 64.4119873 C-38.91503975 64.35033839 -42.60882376 64.3231484 -46.30273438 64.29296875 C-53.53582431 64.22883917 -60.76770478 64.12659112 -68 64 C-65.46978621 62.31319081 -63.3938052 61.26518538 -60.60546875 60.15234375 C-30.27163352 47.78753355 -12.69570036 30.10360851 0 0 Z " fill="#0A0A09" transform="translate(183,124)"/>
<path d="M0 0 C7.47584448 -0.06960318 14.95161873 -0.12286342 22.42772198 -0.15543652 C25.8994411 -0.17107243 29.37093803 -0.19227212 32.8425293 -0.22631836 C36.83644712 -0.26524063 40.83013263 -0.27972629 44.82421875 -0.29296875 C46.06709152 -0.30845261 47.30996429 -0.32393646 48.59049988 -0.33988953 C49.75132584 -0.34011612 50.91215179 -0.34034271 52.1081543 -0.34057617 C53.63704536 -0.35056892 53.63704536 -0.35056892 55.19682312 -0.36076355 C59.20358001 0.15489847 61.61597695 1.96967867 64.79121399 4.33345032 C66.5652642 6.77932808 66.36008102 8.66755069 66.34057617 11.66479492 C66.34034958 12.82577194 66.34012299 13.98674896 66.33988953 15.1829071 C66.32440567 16.43610245 66.30892181 17.68929779 66.29296875 18.98046875 C66.28872391 20.26359451 66.28447906 21.54672028 66.28010559 22.86872864 C66.26866162 26.27686138 66.23919896 29.6846094 66.20599365 33.09259033 C66.17528272 36.57143957 66.16159811 40.05035109 66.14648438 43.52929688 C66.11432835 50.35302243 66.06313776 57.17649274 66 64 C63.94081977 60.91122965 62.74948301 58.00638621 61.375 54.5625 C52.25662364 32.73220082 34.62521922 16.21178169 13 7 C8.69261272 5.25851869 4.36507701 3.59114097 0 2 C0 1.34 0 0.68 0 0 Z " fill="#090909" transform="translate(118,8)"/>
<path d="M0 0 C2.0622048 -0.054348 4.12482816 -0.09294961 6.1875 -0.125 C7.33605469 -0.14820313 8.48460938 -0.17140625 9.66796875 -0.1953125 C13.01607029 0.00094199 15.08759826 0.36240387 18 2 C19.58984375 3.99609375 19.58984375 3.99609375 20.9375 6.4375 C21.43378906 7.324375 21.93007812 8.21125 22.44140625 9.125 C22.95574219 10.07375 23.47007813 11.0225 24 12 C24.84884766 13.485 24.84884766 13.485 25.71484375 15 C30 22.58220588 30 22.58220588 30 26 C30.66 26 31.32 26 32 26 C34.02907167 29.3146667 34.12742133 31.4315979 33.625 35.25 C33.51414063 36.14203125 33.40328125 37.0340625 33.2890625 37.953125 C33.14597656 38.96632813 33.14597656 38.96632813 33 40 C33.8149292 40.28593018 34.6298584 40.57186035 35.46948242 40.86645508 C38 43 38 43 38.44692993 45.01498413 C38.58053906 47.73422549 38.56077711 50.4150475 38.48828125 53.13671875 C38.48120651 54.13129593 38.47413177 55.12587311 38.46684265 56.15058899 C38.43883158 59.33032133 38.37607922 62.50829906 38.3125 65.6875 C38.28742588 67.84177146 38.26461117 69.9960705 38.24414062 72.15039062 C38.18898259 77.43427083 38.10266234 82.71683785 38 88 C35.03 88 32.06 88 29 88 C29.05349609 87.08114014 29.10699219 86.16228027 29.16210938 85.21557617 C30.223951 62.28464967 27.72863738 48.13469211 14.17431641 29.11035156 C10.66222278 24.08631465 7.55754984 18.83534923 4.4375 13.5625 C3.58913574 12.19387817 3.58913574 12.19387817 2.72363281 10.79760742 C2.21541992 9.95818604 1.70720703 9.11876465 1.18359375 8.25390625 C0.73556396 7.52502197 0.28753418 6.7961377 -0.17407227 6.04516602 C-1.16555921 3.59004153 -0.89747427 2.44524731 0 0 Z " fill="#0FB1BE" transform="translate(59,54)"/>
<path d="M0 0 C1.40378906 -0.00386719 1.40378906 -0.00386719 2.8359375 -0.0078125 C5.53229747 0.12058559 7.99771509 0.52311291 10.625 1.125 C8.32633226 5.78451527 5.81189193 10.32099506 3.3125 14.875 C2.83876953 15.74382812 2.36503906 16.61265625 1.87695312 17.5078125 C-0.72227548 22.24402659 -3.41815643 26.87973507 -6.31420898 31.44042969 C-7.97332411 34.07515797 -9.44323345 36.79696055 -10.90209961 39.54589844 C-12.375 42.125 -12.375 42.125 -14.12963867 44.58984375 C-20.25321924 53.59791267 -20.39315293 61.38348963 -20.3125 71.875 C-20.32564061 73.45836246 -20.34189615 75.04170225 -20.36132812 76.625 C-20.40172586 80.45901943 -20.40023292 84.29087396 -20.375 88.125 C-23.015 88.125 -25.655 88.125 -28.375 88.125 C-28.47630235 81.77137854 -28.54642368 75.41796477 -28.59472656 69.0637207 C-28.61485958 66.90153216 -28.64216833 64.73939817 -28.67675781 62.57739258 C-28.72520117 59.47203116 -28.74795172 56.36738864 -28.765625 53.26171875 C-28.78627014 52.29288254 -28.80691528 51.32404633 -28.82818604 50.32585144 C-28.82848816 49.4251442 -28.82879028 48.52443695 -28.82910156 47.59643555 C-28.83798401 46.80367722 -28.84686646 46.01091888 -28.85601807 45.19413757 C-28.19740702 42.36106962 -26.70786521 41.7334885 -24.375 40.125 C-24.04353764 37.53959361 -24.14200715 35.74670329 -25.05737305 33.30419922 C-25.52185778 30.11742694 -24.31521801 28.48462524 -22.76953125 25.6953125 C-22.19783203 24.65246094 -21.62613281 23.60960937 -21.03710938 22.53515625 C-20.42673828 21.45105469 -19.81636719 20.36695312 -19.1875 19.25 C-18.59646484 18.17363281 -18.00542969 17.09726563 -17.39648438 15.98828125 C-8.54168797 -0.02340188 -8.54168797 -0.02340188 0 0 Z " fill="#0EB1BE" transform="translate(126.375,53.875)"/>
<path d="M0 0 C0.33 0 0.66 0 1 0 C1.33 2.31 1.66 4.62 2 7 C3.98 7 5.96 7 8 7 C8.66 5.35 9.32 3.7 10 2 C10.33 2 10.66 2 11 2 C11.36625971 6.51720311 11.36625971 6.51720311 9.625 8.8125 C8 10 8 10 6 10 C6 24.85 6 39.7 6 55 C8.31 55 10.62 55 13 55 C13 55.33 13 55.66 13 56 C8.71 56 4.42 56 0 56 C0 55.67 0 55.34 0 55 C1.65 55 3.3 55 5 55 C5 40.15 5 25.3 5 10 C3.68 9.67 2.36 9.34 1 9 C0.34 8.34 -0.32 7.68 -1 7 C-0.625 3.375 -0.625 3.375 0 0 Z " fill="#95D1A3" transform="translate(92,87)"/>
<path d="M0 0 C2.14809171 3.22213757 2.29386153 4.27775401 2 8 C1 9 1 9 -2 9.125 C-5 9 -5 9 -6 8 C-6.30392154 5.11274535 -6.41849029 3.57791516 -4.6875 1.1875 C-3 0 -3 0 0 0 Z " fill="#FAFBF3" transform="translate(99,86)"/>
<path d="M0 0 C0.66 0.33 1.32 0.66 2 1 C-3.94 6.94 -9.88 12.88 -16 19 C-16 14.80130728 -14.19810866 13.66463027 -11.375 10.625 C-10.9207666 10.13475342 -10.4665332 9.64450684 -9.99853516 9.1394043 C-6.85830473 5.79321137 -3.64356736 2.78061719 0 0 Z " fill="#B0BC77" transform="translate(42,26)"/>
</svg>
